<svg xmlns="http://www.w3.org/2000/svg" version="1.1" xmlns:xlink="http://www.w3.org/1999/xlink" xmlns:svgjs="http://svgjs.com/svgjs" width="1440" height="560" preserveAspectRatio="none" viewBox="0 0 1440 560"><g mask="url(&quot;#SvgjsMask1100&quot;)" fill="none"><path d="M -489.4722922686648,478 C -393.47,410.2 -201.47,149.2 -9.47229226866476,139 C 182.53,128.8 278.53,440.4 470.5277077313352,427 C 662.53,413.6 758.53,87.8 950.5277077313352,72 C 1142.53,56.2 1332.63,329.8 1430.5277077313353,348 C 1528.42,366.2 1438.11,200 1440,163" stroke="rgba(255, 91, 91, 1)" stroke-width="2"></path><path d="M -583.7514774891024,97 C -487.75,135.6 -295.75,271.4 -103.75147748910238,290 C 88.25,308.6 184.25,178 376.2485225108976,190 C 568.25,202 664.25,373.6 856.2485225108976,350 C 1048.25,326.4 1219.5,75.8 1336.2485225108976,72 C 1453,68.2 1419.25,279.2 1440,331" stroke="rgba(255, 91, 91, 1)" stroke-width="2"></path><path d="M -540.9009804545309,79 C -444.9,144.2 -252.9,407.8 -60.90098045453093,405 C 131.1,402.2 227.1,74.8 419.09901954546905,65 C 611.1,55.2 707.1,339.8 899.0990195454691,356 C 1091.1,372.2 1270.92,143.4 1379.099019545469,146 C 1487.28,148.6 1427.82,324.4 1440,369" stroke="rgba(255, 91, 91, 1)" stroke-width="2"></path><path d="M -325.9269217542146,379 C -229.93,338 -37.93,152.4 154.07307824578538,174 C 346.07,195.6 442.07,477.8 634.0730782457854,487 C 826.07,496.2 922.07,258.4 1114.0730782457854,220 C 1306.07,181.6 1528.89,283.4 1594.0730782457854,295 C 1659.26,306.6 1470.81,281.4 1440,278" stroke="rgba(255, 91, 91, 1)" stroke-width="2"></path></g><defs><mask id="SvgjsMask1100"><rect width="1440" height="560" fill="#ffffff"></rect></mask></defs></svg>